first trial
nRows=19
nColumns=38

# SIMM Motion File Header:
name Sujet_02_velo_100.mvnx
datacolumns 38
datarows 19
otherdata 1
range 0.0000 0.3000
endheader
time pelvis_tilt  pelvis_list  pelvis_rotation  pelvis_tx  pelvis_ty  pelvis_tz  hip_flexion_r  hip_adduction_r  hip_rotation_r  knee_angle_r  ankle_angle_r  subtalar_angle_r  mtp_angle_r  hip_flexion_l  hip_adduction_l  hip_rotation_l  knee_angle_l  ankle_angle_l  subtalar_angle_l  mtp_angle_l  lumbar_extension  lumbar_bending  lumbar_rotation  arm_flex_r  arm_add_r  arm_rot_r  elbow_flex_r  pro_sup_r  wrist_flex_r  wrist_dev_r  arm_flex_l  arm_add_l  arm_rot_l  elbow_flex_l  pro_sup_l  wrist_flex_l  wrist_dev_l
0.0000	2.5793	0.6193	-81.4426	-0.6239	1.0132	-0.2138	29.2336	-2.7617	-6.9587	49.9529	-6.3730	-7.0445	-25.8154	73.2680	9.3142	1.2832	102.1800	-16.9998	-14.7880	-0.0000	-26.9308	2.4839	1.4523	88.5941	-16.2911	38.7188	6.5087	73.0288	-2.0832	9.8754	94.4256	6.7958	36.0913	7.1171	97.2529	-15.8304	-2.1117	
0.0170	2.4664	0.4731	-81.5327	-0.6268	1.0252	-0.1870	30.7011	-3.2378	-6.7884	54.8114	-5.8663	-6.1771	-16.2155	72.1296	9.0098	1.0269	98.0335	-15.9394	-14.2649	-0.0000	-26.9107	2.5679	1.5287	88.6100	-16.4364	38.9647	6.6223	72.7151	-1.9361	10.0134	94.7241	6.6744	35.9779	7.3200	97.2159	-15.6954	-1.8964	
0.0330	2.3536	0.3266	-81.6232	-0.6297	1.0371	-0.1603	32.1708	-3.7096	-6.6114	59.6676	-5.3529	-5.3315	-6.6725	70.9924	8.7085	0.7614	93.8830	-14.8818	-13.7239	0.0000	-26.8909	2.6519	1.6052	88.6258	-16.5823	39.2104	6.7341	72.4018	-1.7892	10.1511	95.0224	6.5531	35.8649	7.5229	97.1790	-15.5618	-1.6821	
0.0500	2.2086	0.1641	-81.7009	-0.6326	1.0489	-0.1334	33.9560	-4.2392	-6.1022	64.7153	-4.7617	-4.6505	0.0000	69.4032	8.2831	0.3141	89.3232	-14.1443	-13.0312	-0.0000	-26.8401	2.7711	1.6760	88.6419	-16.6719	39.3466	6.8542	72.2666	-1.6906	10.2691	95.1444	6.5375	35.8344	7.5067	97.0789	-15.4900	-1.6121	
0.0670	2.0024	-0.0449	-81.7426	-0.6354	1.0602	-0.1062	36.1942	-4.8401	-4.8964	70.1587	-3.9713	-4.2419	1.9096	67.1547	7.6862	-0.5664	84.0684	-13.8618	-12.0230	0.0000	-26.7416	2.9617	1.7357	88.6503	-16.6980	39.2952	7.0001	72.4258	-1.6788	10.3422	94.9537	6.7301	35.9406	7.1440	96.8756	-15.4959	-1.7497	
0.0830	1.7638	-0.2700	-81.7720	-0.6383	1.0714	-0.0789	38.7679	-5.4452	-3.3465	75.8161	-3.1046	-3.9962	0.9554	64.4498	7.0063	-1.6598	78.3840	-13.8847	-10.8326	-0.0000	-26.6126	3.1879	1.7896	88.6590	-16.6677	39.1346	7.1551	72.7616	-1.7151	10.3962	94.5879	7.0304	36.1298	6.5610	96.6086	-15.5627	-2.0309	
0.1000	1.5458	-0.4362	-81.8471	-0.6411	1.0825	-0.0519	41.5983	-6.0166	-2.2002	81.2967	-2.4624	-3.7148	-0.0000	61.4564	6.2967	-2.4392	72.7096	-14.1066	-9.7730	0.0000	-26.4735	3.3772	1.8473	88.6929	-16.5451	38.9902	7.2817	73.1020	-1.7324	10.4875	94.2810	7.2386	36.3212	5.9199	96.3353	-15.7021	-2.4081	
0.1170	1.3621	-0.4897	-82.0108	-0.6438	1.0938	-0.0252	44.7422	-6.6391	-1.7691	86.5637	-2.3718	-3.2075	-0.0000	58.1440	5.5267	-2.5733	67.0660	-14.4987	-8.9707	-0.0000	-26.3239	3.4875	1.9194	88.7996	-16.3059	38.9447	7.3415	73.3572	-1.7070	10.6424	94.1602	7.2839	36.4770	5.1948	96.1005	-15.9655	-2.9326	
0.1330	1.1989	-0.4850	-82.2190	-0.6466	1.1051	0.0012	48.1265	-7.2763	-1.7308	91.6080	-2.5159	-2.6410	-0.0000	54.5536	4.6744	-2.4221	61.4760	-15.0875	-8.3266	-0.0000	-26.1642	3.5613	1.9955	88.9301	-15.9735	38.9147	7.3759	73.6197	-1.6635	10.8341	94.0974	7.2359	36.6347	4.4137	95.8639	-16.3100	-3.5609	
0.1500	1.0688	-0.5091	-82.3989	-0.6491	1.1166	0.0272	51.4607	-7.7520	-1.9020	96.0629	-2.2269	-2.3409	-0.0000	50.9599	3.8003	-2.4788	56.3914	-15.8664	-7.8415	0.0000	-26.0155	3.6516	2.0534	88.9660	-15.5836	38.7776	7.4717	73.9938	-1.6069	11.0385	93.9429	7.1028	36.8266	3.8219	95.5548	-16.5977	-4.0970	
0.1670	0.9715	-0.6022	-82.5354	-0.6511	1.1286	0.0525	54.8260	-8.0194	-2.4350	100.0784	-1.1724	-2.2542	0.0000	47.2455	2.8853	-2.9925	51.6683	-16.9788	-7.5194	-0.0000	-25.8841	3.7798	2.0829	88.8501	-15.1092	38.4521	7.6412	74.5723	-1.5286	11.2580	93.5922	6.8681	37.0723	3.5164	95.1086	-16.7457	-4.4503	
0.1830	0.9076	-0.7238	-82.6436	-0.6529	1.1409	0.0774	58.1312	-8.1819	-3.2061	103.5006	0.3222	-2.4431	0.0000	43.5177	1.9932	-3.7181	47.4389	-18.2939	-7.3806	0.0000	-25.7636	3.9243	2.0937	88.6431	-14.5774	38.0224	7.8820	75.2688	-1.4386	11.4896	93.1499	6.5493	37.3519	3.4027	94.5882	-16.8281	-4.7033	
0.2000	0.8919	-0.8393	-82.6945	-0.6548	1.1527	0.1021	60.8349	-8.2264	-3.6298	105.5388	1.9608	-3.4307	-0.0000	40.3867	1.3073	-4.3522	44.5531	-19.3974	-7.4474	0.0000	-25.6563	4.0740	2.0926	88.4032	-14.1054	37.6147	8.2547	75.9196	-1.3698	11.7023	92.7815	6.2054	37.6382	3.4367	94.1100	-16.9360	-4.9134	
0.2170	0.9376	-0.9468	-82.6360	-0.6568	1.1635	0.1267	62.7780	-8.0832	-3.3881	105.6970	3.7961	-5.9262	-0.0000	38.0280	0.8649	-4.7650	43.3326	-20.1412	-7.7598	-0.0000	-25.5671	4.2440	2.0603	88.1352	-13.6798	37.2021	8.8332	76.5942	-1.3012	11.8442	92.5209	5.8127	37.9919	3.6469	93.6900	-17.1431	-5.1347	
0.2330	1.0309	-1.0483	-82.5199	-0.6590	1.1737	0.1512	64.1203	-7.7646	-2.8070	104.4498	5.8104	-9.3010	-0.0000	36.2725	0.5816	-5.0269	43.4381	-20.6748	-8.2622	0.0000	-25.4905	4.4186	2.0158	87.8346	-13.3126	36.8121	9.5429	77.2291	-1.2536	11.9675	92.3357	5.3931	38.3515	4.0047	93.3080	-17.3752	-5.3125	
0.2500	1.1461	-1.1162	-82.4735	-0.6614	1.1840	0.1760	64.8048	-7.3479	-2.2614	102.4946	7.5688	-12.0074	-0.0000	35.2187	0.4306	-5.1121	44.7380	-21.0311	-8.8488	0.0000	-25.4137	4.5401	2.0239	87.5404	-13.1615	36.6480	10.2016	77.4465	-1.3226	12.1987	92.2888	5.0737	38.5070	4.3763	93.0273	-17.5027	-5.3438	
0.2670	1.2736	-1.1246	-82.5628	-0.6642	1.1941	0.2018	64.5710	-6.7982	-1.7889	99.8467	8.9472	-13.3721	-0.0000	35.0051	0.4379	-4.9354	47.4408	-21.1718	-9.6191	-0.0000	-25.3208	4.5704	2.1329	87.2394	-13.3910	36.8531	10.8448	76.9052	-1.6223	12.6748	92.4956	4.9001	38.3040	4.7786	92.8933	-17.4455	-5.1063	
0.2830	1.4232	-1.0989	-82.7220	-0.6672	1.2042	0.2279	63.6799	-6.1689	-1.3347	96.5149	10.0533	-14.0040	-0.0000	35.4926	0.5772	-4.5744	51.3543	-21.1518	-10.5062	0.0000	-25.2281	4.5488	2.2955	86.9438	-13.8381	37.2805	11.4319	75.9299	-2.0383	13.2639	92.8378	4.8268	37.8971	5.1917	92.8626	-17.2831	-4.7223	
0.3000	1.5985	-1.0881	-82.8802	-0.6705	1.2149	0.2536	62.8677	-5.6696	-1.1449	93.2301	10.8114	-14.2648	0.0000	36.3630	0.7491	-4.2550	55.7516	-21.1299	-11.1590	0.0000	-25.1718	4.5326	2.4339	86.7276	-14.1709	37.6973	11.6515	75.1367	-2.3249	13.6852	93.0261	4.8445	37.5405	5.4243	92.8674	-17.1267	-4.4584	
